<?xml version="1.0" encoding="utf-8"?>
<!-- Generator: Adobe Illustrator 26.0.0, SVG Export Plug-In . SVG Version: 6.00 Build 0)  -->
<svg version="1.1" id="Livello_1" xmlns="http://www.w3.org/2000/svg" xmlns:xlink="http://www.w3.org/1999/xlink" x="0px" y="0px"
	 viewBox="0 0 694.49 255.12" style="enable-background:new 0 0 694.49 255.12;" xml:space="preserve">
<style type="text/css">
	.st0{fill:#01A0C6;}
	.st1{fill:#FFE501;}
	.st2{fill:#F0047F;}
	.st3{fill:#0E3192;}
	.st4{fill:#FF0001;}
</style>
<path class="st0" d="M545.12,93.41c7.03,17.3-1.29,37.02-18.6,44.05c-17.3,7.03-37.02-1.29-44.05-18.59
	c-7.03-17.3,1.29-37.02,18.59-44.05C518.37,67.78,538.09,76.1,545.12,93.41z"/>
<path class="st1" d="M620.17,124.62c5.58,13.74-1.03,29.4-14.77,34.99s-29.41-1.03-34.99-14.76c-5.59-13.74,1.03-29.41,14.77-35
	C598.92,104.27,614.58,110.88,620.17,124.62z"/>
<path class="st2" d="M683.96,45.69c8.37,20.61-1.54,44.1-22.16,52.48s-44.11-1.54-52.48-22.14c-8.38-20.61,1.54-44.11,22.15-52.49
	S675.58,25.08,683.96,45.69z"/>
<g>
	<g>
		<path class="st3" d="M219.14,238.78c0-0.2,0-0.4,0.07-0.47l2.22-4.31c0.13-0.2,0.34-0.27,0.67-0.27c0.2,0,0.4,0,0.47,0.07
			c1.41,0.81,4.71,2.29,9.82,2.29c3.16,0,6.19-1.75,6.19-3.97c0-6.26-19.91-3.9-19.91-17.36c0-6.93,4.84-10.96,13.52-10.96
			c4.57,0,9.22,1.88,11.23,2.62c0.27,0.2,0.47,0.4,0.54,0.74c0,0.2,0,0.4-0.07,0.47l-2.02,4.57c-0.07,0.34-0.34,0.47-0.74,0.47
			c-0.13,0-0.27-0.07-0.47-0.13c-1.75-0.54-5.79-1.75-8.27-1.75c-5.99,0-6.12,3.5-6.12,4.31c0,7,19.84,4.57,19.84,17.56
			c0,6.26-7.4,10.16-12.78,10.16c-4.78,0-9.01-0.34-13.79-3.36C219.48,239.38,219.14,239.11,219.14,238.78z"/>
		<path class="st3" d="M260.99,211.2h-9.22c-0.54,0-0.81-0.27-0.81-0.81v-5.31c0-0.54,0.27-0.81,0.81-0.81h26.03
			c0.54,0,0.81,0.27,0.81,0.81v5.31c0,0.54-0.27,0.81-0.81,0.81h-9.22v30.47c0,0.54-0.27,0.81-0.81,0.81h-5.99
			c-0.54,0-0.81-0.27-0.81-0.81V211.2z"/>
		<path class="st3" d="M305.19,234.2h-14.26l-3.57,7.47c-0.2,0.47-0.54,0.81-1.08,0.81h-6.53c-0.54,0-0.81-0.27-0.81-0.81
			l18.1-37.13c0.34-0.34,0.67-0.47,1.01-0.47c0.34,0,0.67,0.13,1.01,0.47l18.1,37.13c0,0.54-0.27,0.81-0.81,0.81h-6.53
			c-0.54,0-0.87-0.34-1.08-0.81L305.19,234.2z M301.9,227.41l-3.83-8.01l-3.83,8.01H301.9z"/>
		<path class="st3" d="M330.83,222.36v19.31c0,0.54-0.27,0.81-0.81,0.81h-5.99c-0.54,0-0.81-0.27-0.81-0.81v-37.13
			c0.2-0.34,0.4-0.47,0.74-0.47c0.47,0,0.54,0.2,0.81,0.47l15.61,16.35c0.34,0.54,0.94,0.74,1.21,0.74s0.87-0.2,1.21-0.74
			l15.61-16.35c0.27-0.27,0.34-0.47,0.81-0.47c0.34,0,0.54,0.13,0.74,0.47v37.13c0,0.54-0.27,0.81-0.81,0.81h-5.99
			c-0.54,0-0.81-0.27-0.81-0.81v-19.31l-10.02,10.09c-0.47,0.47-0.47,0.54-0.74,0.54s-0.27-0.07-0.74-0.54L330.83,222.36z"/>
		<path class="st3" d="M386.8,204.27c6.26,0,11.44,5.05,11.44,12.78c0,7.67-5.18,12.65-11.44,12.65h-9.82v11.97
			c0,0.54-0.27,0.81-0.81,0.81h-5.99c-0.54,0-0.81-0.27-0.81-0.81v-36.59c0-0.54,0.27-0.81,0.81-0.81H386.8z M386.13,222.63
			c2.42,0,4.51-1.75,4.51-5.52c0-3.77-2.09-5.45-4.51-5.45h-9.15v10.96H386.13z"/>
		<path class="st3" d="M424.14,234.2h-14.26l-3.57,7.47c-0.2,0.47-0.54,0.81-1.08,0.81h-6.53c-0.54,0-0.81-0.27-0.81-0.81
			l18.1-37.13c0.34-0.34,0.67-0.47,1.01-0.47c0.34,0,0.67,0.13,1.01,0.47l18.1,37.13c0,0.54-0.27,0.81-0.81,0.81h-6.53
			c-0.54,0-0.87-0.34-1.08-0.81L424.14,234.2z M420.85,227.41l-3.83-8.01l-3.83,8.01H420.85z"/>
		<path class="st3" d="M442.99,242.48c-0.54,0-0.81-0.27-0.81-0.81v-36.59c0-0.54,0.27-0.81,0.81-0.81h12.98
			c10.76,0,18.36,8.48,18.36,19.24c0,10.76-7.6,18.97-18.36,18.97H442.99z M454.76,235.68c7,0,11.97-4.98,11.97-11.97
			c0-7-4.98-12.44-11.97-12.44h-4.98v24.42H454.76z"/>
		<path class="st3" d="M488.67,241.67c0,0.54-0.27,0.81-0.81,0.81h-5.99c-0.54,0-0.81-0.27-0.81-0.81v-36.59
			c0-0.54,0.27-0.81,0.81-0.81h5.99c0.54,0,0.81,0.27,0.81,0.81V241.67z"/>
		<path class="st3" d="M528.49,242.48c-0.34,0-0.61-0.13-0.94-0.47l-1.61-1.95c-2.96,1.82-6.32,2.76-10.02,2.76
			c-10.76,0-19.51-8.74-19.51-19.51s8.74-19.51,19.51-19.51c5.38,0,10.29,2.15,13.79,5.65c0.2,0.27,0.27,0.47,0.27,0.67
			c0,0.2-0.07,0.4-0.27,0.61l-3.83,3.7c-0.13,0.13-0.27,0.2-0.47,0.2c-0.27,0-0.54-0.13-0.74-0.34c-2.42-2.22-5.31-3.43-8.81-3.43
			c-7,0-11.84,5.72-11.84,12.65c0,7,4.84,12.58,11.84,12.58c3.16,0,5.85-0.94,8.14-2.83v-4.71h-6.86c-0.54,0-0.81-0.27-0.81-0.81
			v-5.18c0-0.54,0.27-0.81,0.81-0.81h13.66c0.54,0,0.81,0.27,0.81,0.81v19.1c0,0.54-0.27,0.81-0.81,0.81H528.49z"/>
		<path class="st3" d="M548.28,241.67c0,0.54-0.27,0.81-0.81,0.81h-5.99c-0.54,0-0.81-0.27-0.81-0.81v-36.59
			c0-0.54,0.27-0.81,0.81-0.81h5.99c0.54,0,0.81,0.27,0.81,0.81V241.67z"/>
		<path class="st3" d="M565.03,211.2h-9.22c-0.54,0-0.81-0.27-0.81-0.81v-5.31c0-0.54,0.27-0.81,0.81-0.81h26.03
			c0.54,0,0.81,0.27,0.81,0.81v5.31c0,0.54-0.27,0.81-0.81,0.81h-9.22v30.47c0,0.54-0.27,0.81-0.81,0.81h-5.99
			c-0.54,0-0.81-0.27-0.81-0.81V211.2z"/>
		<path class="st3" d="M609.23,234.2h-14.26l-3.57,7.47c-0.2,0.47-0.54,0.81-1.08,0.81h-6.53c-0.54,0-0.81-0.27-0.81-0.81
			l18.1-37.13c0.34-0.34,0.67-0.47,1.01-0.47s0.67,0.13,1.01,0.47l18.1,37.13c0,0.54-0.27,0.81-0.81,0.81h-6.53
			c-0.54,0-0.87-0.34-1.08-0.81L609.23,234.2z M605.94,227.41l-3.83-8.01l-3.83,8.01H605.94z"/>
		<path class="st3" d="M653.84,241.67c0,0.54-0.27,0.81-0.81,0.81h-24.96c-0.54,0-0.81-0.27-0.81-0.81v-36.59
			c0-0.54,0.27-0.81,0.81-0.81h5.99c0.54,0,0.81,0.27,0.81,0.81v30.61h18.16c0.54,0,0.81,0.27,0.81,0.81V241.67z"/>
		<path class="st3" d="M661.51,205.07c0-0.54,0.27-0.81,0.81-0.81h24.96c0.54,0,0.81,0.27,0.81,0.81v5.31
			c0,0.54-0.27,0.81-0.81,0.81h-18.16v9.35h14.4c0.54,0,0.81,0.27,0.81,0.81v5.11c0,0.54-0.27,0.81-0.81,0.81h-14.4v8.27h18.16
			c0.54,0,0.81,0.27,0.81,0.81v5.31c0,0.54-0.27,0.81-0.81,0.81h-24.96c-0.54,0-0.81-0.27-0.81-0.81V205.07z"/>
	</g>
</g>
<path class="st4" d="M116.71,127.06c11.64-8.35,14.04-24.55,6.29-35.86c-8.87-12.95-25.1-14.88-36.45-7.3
	c-12.88,8.61-15.11,25.36-7.15,36.91C87.87,133.08,104.91,135.91,116.71,127.06z M72.78,67.24c21.78-16.04,50.75-10.57,66.06,8.85
	c8.76,11.12,12.01,24.05,9.55,38.06c-2.23,12.68-8.61,23.09-19.12,30.61c-21.38,15.31-50.48,11.02-66.37-9.84
	C46.41,113.28,51.39,82.62,72.78,67.24z"/>
<g>
	<path class="st3" d="M28.68,93.96c0.75-4.2,1.82-8.34,3.29-12.37c3.24-8.88,8.04-16.91,14.49-23.85c2.54-2.74,5.34-5.28,8.23-7.65
		c7.6-6.25,16.17-10.71,25.65-13.36c7.95-2.22,16.04-3.14,24.31-2.63c6.82,0.42,13.47,1.69,19.88,3.96
		c8.43,2.99,16.07,7.43,22.95,13.2c5.68,4.77,10.36,10.38,14.35,16.54c4.05,6.25,7.18,12.99,9.8,20c0.76,2.04,1.47,4.09,2.14,6.16
		h22.42c-0.29-1.13-0.55-2.28-0.86-3.41c-2.15-7.99-5.14-15.72-8.91-23.1c-2.38-4.65-4.99-9.21-7.83-13.6
		c-3.72-5.75-8.26-10.85-13.23-15.6c-6.43-6.15-13.59-11.25-21.46-15.33c-5.7-2.95-11.65-5.34-17.86-7.06
		c-7.92-2.19-15.99-3.44-24.2-3.56c-8.67-0.13-17.2,0.92-25.61,3.09c-10.29,2.66-19.76,7.07-28.6,12.88
		c-6.27,4.13-11.85,9.1-16.94,14.63C22.48,51.84,16.27,61.97,12,73.31c-2.53,6.72-4.24,13.61-5.21,20.65H28.68z"/>
	<path class="st3" d="M201.3,116.94h-21.99c0.94,5.32,1.73,10.67,2.27,16.03c0.92,9.27,1.57,18.58,1.86,27.89
		c0.27,8.48,0.1,16.99-0.25,25.47c-0.35,8.74-1.13,17.47-1.75,26.2c-0.08,1.12-0.27,2.24-0.43,3.5c-4.76-1-9.51-1.9-14.21-3.01
		c-6.11-1.44-12.22-2.9-18.25-4.63c-8.25-2.37-16.53-4.71-24.61-7.59c-9.28-3.3-18.46-6.94-27.5-10.86
		c-9.69-4.2-18.91-9.33-27.72-15.2c-6.36-4.24-12.36-8.94-17.84-14.25c-4.92-4.76-9.14-10.12-12.77-15.97
		c-3.75-6.04-6.43-12.51-8.23-19.36c-0.72-2.73-1.21-5.47-1.59-8.23H6.41c0.47,4.43,1.23,8.84,2.35,13.2
		c2.35,9.16,6.01,17.81,10.93,25.92c4.31,7.09,9.58,13.43,15.43,19.27c6,5.99,12.63,11.27,19.62,16.08
		c7.39,5.08,15.09,9.67,23.13,13.62c6.31,3.1,12.66,6.19,19.2,8.76c10,3.92,20.12,7.58,30.31,10.99c7.11,2.38,14.39,4.27,21.65,6.17
		c6.94,1.81,13.93,3.43,20.93,4.95c4.93,1.07,9.92,1.9,14.9,2.73c4.77,0.79,9.56,1.45,14.56,2.2c0.8-5.31,1.73-10.47,2.32-15.67
		c0.95-8.32,1.85-16.65,2.45-25c0.58-8.18,1.02-16.39,1.04-24.59c0.02-9.96-0.35-19.92-0.77-29.87
		C204.05,136.03,202.99,126.44,201.3,116.94z"/>
</g>
<g>
	<rect x="399.23" y="12.31" class="st3" width="50.52" height="81.66"/>
	<rect x="399.23" y="116.94" class="st3" width="50.52" height="58.6"/>
</g>
<g>
	<rect x="219.87" y="12.31" class="st3" width="50.52" height="81.66"/>
	<rect x="317.73" y="12.31" class="st3" width="50.52" height="81.66"/>
	<path class="st3" d="M317.46,116.94c-1.29,19.23-7.54,25.57-23.41,25.57c-9.27,0-16.11-2.98-19.77-8.95
		c-2.03-3.39-3.22-8.51-3.68-16.63H220c0.55,15.87,2.93,25.39,8.41,35.26c11.47,20.87,31.48,30.07,65.64,30.07
		c29.53,0,47.59-6.46,60.03-21.62c9.33-11.27,13.25-23.35,14.01-43.71H317.46z"/>
</g>
</svg>
